<?xml version="1.0" standalone="no"?><!DOCTYPE svg PUBLIC "-//W3C//DTD SVG 1.1//EN" "http://www.w3.org/Graphics/SVG/1.1/DTD/svg11.dtd"><svg t="1771671777094" class="icon" viewBox="0 0 1024 1024" version="1.1" xmlns="http://www.w3.org/2000/svg" p-id="6233" xmlns:xlink="http://www.w3.org/1999/xlink" width="200" height="200"><path d="M461.749762 0.034989l3.668885-0.009997c3.283003-0.007998 6.566006-0.005998 9.849009 0 3.459949 0.004998 6.919898 0 10.378848-0.002999 5.806237-0.002999 11.613473 0.001 17.419709 0.010997 6.68297 0.010997 13.365941 0.006998 20.048911-0.003999 5.769248-0.008997 11.539495-0.009997 17.309743-0.004998 3.431958 0.002999 6.863915 0.003999 10.296873-0.002999 3.829837-0.004998 7.660673 0.002999 11.49051 0.013995l3.380973-0.011996c7.289786 0.040988 14.19069 0.862738 21.343518 2.269311v1.999393l19.98693 2.998089v-0.999696c11.514503 0.779763 11.514503 0.779763 16.98984 2.999089v1.998393c3.078065 0.700787 6.160129 1.38258 9.244192 2.060374l2.642198 0.603817 2.559222 0.555831 2.345288 0.522841c2.361283 0.272917 3.927807-0.115965 6.196118-0.744774 2.13935 0.556831 2.13935 0.556831 4.24771 1.435564l2.138351 0.870736c0.529839 0.22993 1.061678 0.456861 1.609511 0.69179v1.999392c2.181338 0.676794 4.367673 1.339593 6.556009 1.998394l3.689879 1.123658c3.728868 0.869736 6.928896 0.949712 10.739738 0.874735 2.43526 0.999696 2.43526 0.999696 3.997786 1.999392v1.998393a943.753372 943.753372 0 0 0 7.307781 2.559223l2.089365 0.748773c4.24871 1.519538 4.24871 1.519538 8.591391 0.68979 2.186336 0.935716 2.186336 0.935716 3.997786 1.998393v1.999393c1.786457 0.694789 3.577913 1.379581 5.371368 2.059375l3.021083 1.159647c2.553225 1.08667 2.553225 1.08667 4.599603-0.221932 1.94341 0.776764 1.94341 0.776764 4.122748 1.936412l2.193334 1.15165 1.679489 0.909724v1.999392c4.092757 2.035382 8.19751 4.04877 12.304264 6.058161l3.534926 1.759465 3.387971 1.648499 3.123051 1.539533c2.682185 1.319599 2.682185 1.319599 5.63229-0.012996l1.999393 0.999696v2.99809l5.996179 0.999696v1.998393l2.623203 0.249924c3.88382 0.862738 6.2561 2.300301 9.369154 4.746559v1.999392l1.67949 0.839745 8.314475 4.156738 2.060374 0.374886 1.937412 0.62481 0.999696 2.999089 2.248317 0.248925c3.320991 0.905725 4.451648 2.231322 6.745952 4.747558 2.648196 2.234321 4.606601 3.318992 7.994572 3.996786l1.999392 0.999696v2.99909l2.185337 0.873734 2.811146 1.123659c0.865737 0.289912 1.730474 0.576825 2.623203 0.874734 2.769159 1.311602 3.641894 2.640198 5.371369 5.122445 2.216327 1.919417 3.900815 2.9641 6.68297 3.933805l2.312298 1.062677 0.436867 1.999393 0.56183 1.998393a501.637647 501.637647 0 0 0 5.997178 1.999393c1.123659 2.059375 1.123659 2.059375 1.998393 3.996786 2.022386 0.651802 2.022386 0.651802 3.997786 0.999696l0.999696 1.999393 1.873431 0.873735c2.509238 1.329596 3.434957 2.872128 5.121445 5.121444l1.936412 0.936716c2.792152 1.439563 4.111751 3.625899 6.05816 6.059159l1.893425 0.939715c2.387275 1.200635 3.913811 2.60121 5.789242 4.493635l1.823446 1.809451c1.489548 1.751468 1.489548 1.751468 2.489244 4.749557l1.872431 0.874735c2.123355 1.124658 2.123355 1.124658 3.558919 3.559918 1.386579 2.719174 1.386579 2.719174 4.060767 4.060767 2.959101 1.774461 3.769855 3.568916 5.49733 6.496027a179.500484 179.500484 0 0 0 3.996787 1.999393c3.185033 2.751164 5.648285 4.951496 6.995875 8.994268l2.999089 2.498242c2.99709 2.498241 2.99709 2.498241 3.996786 5.49633 1.569523 1.48155 1.569523 1.48155 3.434957 2.873128 3.019083 2.475248 4.400663 4.325686 5.559311 8.120533 2.031383 2.161344 2.031383 2.161344 4.997483 3.996786l0.311905 2.374279c0.869736 3.313994 2.23932 3.607904 5.006479 5.354374 3.139047 2.36928 5.232411 5.578306 7.485727 8.761339l1.48155 2.011389c2.284306 3.165039 3.924808 5.606297 4.702572 9.482121h1.999392c1.478551 2.019387 1.478551 2.019387 3.184033 4.808539l1.87943 3.033079a5427.518603 5427.518603 0 0 0 1.931413 3.152043c4.651587 7.465733 4.651587 7.465733 9.68106 14.677542 2.083367 2.859132 3.618901 5.798239 5.130442 8.98727 2.04138 4.01678 4.440651 7.830622 6.785939 11.676454 1.389578 2.6352 1.389578 2.6352 1.389578 5.633289h1.998393c1.855436 3.133048 2.199332 5.371369 1.998393 8.994269h1.999393a444.339049 444.339049 0 0 1 2.997089 5.184425l1.686488 2.916114c1.333595 2.942106 1.590517 4.710569 1.311602 7.889604h1.999392v4.997482h1.999393c3.081064 5.390363 4.552617 9.784028 4.996483 15.990144h1.999393l0.998696 5.996179h1.999393c2.201331 4.552617 2.585215 9.024259 2.99709 13.99175h1.999392a938.135078 938.135078 0 0 1 3.497938 9.494117l1.009693 2.685185c2.006391 5.566309 2.76416 9.900993 2.489244 15.8032 1.005695 2.809147 1.331596 3.664887 3.996787 4.997482 0.712784 2.152346 0.712784 2.152346 1.365585 5.000481l0.739775 3.16104 0.766767 3.39297a4872.784082 4872.784082 0 0 1 2.378278 10.262883 359.71575 359.71575 0 0 0 2.025385 8.171518l0.566828 2.176339c0.491851 1.869432 0.989699 3.737865 1.486548 5.604298 0.6598 3.181034 0.864737 5.963189 0.663799 9.201206l-0.999697 0.999696c0.145956 1.952407 0.145956 1.952407 0.557831 4.251709 0.139957 0.852741 0.276916 1.706482 0.419872 2.586214l0.459861 2.718175 0.445864 2.73117c0.366889 2.234321 0.739775 4.468643 1.115661 6.700965h1.998393c1.634504 8.312475 2.289305 16.261061 2.259314 24.722492 0.001 1.210632 0.004998 2.422264 0.009997 3.668885 0.004998 3.283003 0.003999 6.566006-0.002999 9.849009-0.004998 3.459949 0 6.919898 0.002999 10.378848 0.003999 5.806237 0 11.613473-0.009997 17.419709a6384.105077 6384.105077 0 0 0 0.002999 20.048911c0.009997 5.769248 0.009997 11.539495 0.004999 17.309743-0.002999 3.431958-0.002999 6.863915 0.002999 10.296873 0.004998 3.829837-0.001999 7.660673-0.012996 11.492509l0.011996 3.378974c-0.038988 7.288786-0.861738 14.19069-2.268311 21.343518h-1.999393l-2.997089 19.98693h0.999696c-0.36289 8.514414-2.219326 16.450004-4.398664 24.648514a323.935617 323.935617 0 0 0-1.868433 7.76864l-0.651802 2.76616a502.997234 502.997234 0 0 0-1.239623 5.405358l-0.59182 2.475249-0.509846 2.212328-0.735776 1.695485-2.99809 0.999696-0.437867 3.558919c-0.181945 1.479551-0.369888 2.959101-0.561829 4.435653l-0.342896 3.218023c-0.774765 4.461645-2.152346 8.472427-3.716871 12.70914-0.279915 0.779763-0.562829 1.559526-0.852741 2.360283-0.688791 1.901423-1.385579 3.799846-2.082368 5.698269h-1.999392l-0.148955 1.791456c-0.415874 4.395665-0.899727 8.170519-2.848135 12.199295h-1.999393l-0.998696 5.996179h-1.999393l-0.331899 1.9754c-0.932717 5.140439-2.015388 9.437134-4.665583 14.015743h-1.999393v4.996483h-1.998393l-0.186944 2.935109c-0.669797 4.942499-3.236017 8.868307-5.808235 13.056034h-1.999393l-0.437867 3.371976c-0.561829 3.6229-0.561829 3.6229-1.560526 5.621293h-1.999393l-0.22993 2.039381c-1.01969 3.920809-2.938108 6.916899-5.079458 10.328863l-2.362282 3.832836-1.181641 1.911419a193.316288 193.316288 0 0 0-3.16304 5.428351c-1.989396 3.468946-4.103754 6.837923-6.285091 10.188906a674.723079 674.723079 0 0 0-10.27088 16.326041l-1.409572 1.91242h-1.999393l-0.701787 2.057375c-1.617509 3.668886-3.723869 6.741952-6.043164 9.996964l-1.265616 1.853437c-2.872128 4.05077-5.758251 6.368066-9.97697 9.078243a126.181677 126.181677 0 0 0-1.999393 5.997178c-2.061374 1.123659-2.061374 1.123659-3.997786 1.998393-0.199939 0.886731-0.199939 0.886731-0.406876 1.791456-0.754771 2.809147-2.087366 4.240712-4.026777 6.390059l-1.871432 2.105361c-1.689487 1.705482-1.689487 1.705482-3.68788 2.705178l-0.874734 1.873431c-1.329596 2.511237-2.873127 3.434957-5.122444 5.122445l-0.909724 1.861434c-1.21963 2.391274-2.622204 3.934805-4.524626 5.820233l-1.807451 1.824446c-1.752468 1.486549-1.752468 1.486549-4.750557 2.486244l-0.812753 1.81145c-1.18664 2.186336-1.18664 2.186336-4.122748 4.121748-3.204027 2.159344-4.166735 3.793848-6.05816 7.058857-1.323598 0.681793-2.656193 1.34959-3.997786 1.999392l-0.873735 1.748469c-1.675491 3.348983-4.245711 5.866218-7.120837 8.244496l-2.999089 0.999697-2.497242 2.999089c-2.499241 2.99709-2.499241 2.99709-5.49733 3.996786l-2.498241 2.999089c-2.499241 2.99709-2.499241 2.99709-5.496331 3.996786l-0.999696 1.999393-1.936412 0.373887-2.061374 0.62481-0.936716 1.999393-1.061677 1.998393c-2.623203 0.749772-2.623203 0.749772-4.997482 0.999696l-0.187943 1.873431c-0.810754 2.123355-0.810754 2.123355-3.123052 3.185033l-2.685184 0.937715c-2.508238 1.6465-4.318688 3.344984-6.371065 5.558312-2.843137 2.640198-4.944498 3.372976-8.619383 4.435653l-1.999392 1.998393v1.999392c-2.549226 1.01969-5.06946 2.022386-7.682667 2.872128-2.454255 0.903726-2.454255 0.903726-3.309995 3.123052-0.999696 1.999393-0.999696 1.999393-3.498937 3.185032l-2.497242 0.812753c-2.166342 0.832747-2.166342 0.832747-2.999089 2.99909-1.323598 0.363889-2.658193 0.69279-3.996786 0.998696a87.64938 87.64938 0 0 0-3.997786 1.999393L770.823892 954.710044v1.999393c-1.609511 1.25262-1.609511 1.25262-3.747861 2.560222l-2.10936 1.3166c-2.069372 1.083671-3.865826 1.620508-6.135136 2.119357a88.693063 88.693063 0 0 0-3.998786 1.999393l-1.998393 0.999696-1.998393 2.99709-2.999089-0.999697c-2.756163 0.983701-2.756163 0.983701-5.758251 2.526233l-3.385972 1.649499-3.534926 1.759466-3.569916 1.74547c-2.916114 1.429566-5.826231 2.86613-8.734348 4.31269v1.999393a258.886373 258.886373 0 0 1-3.810842 2.059374l-2.143349 1.159648c-2.04138 0.777764-2.04138 0.777764-5.03947-0.221933-2.516236 0.640805-2.516236 0.640805-5.122444 1.749469l-2.694182 1.045682c-2.507239 1.063677-2.507239 1.063677-3.177035 4.200725-3.152043 0.699787-5.724261 0.999696-8.994268 0.999696a104.726194 104.726194 0 0 0-6.184122 1.81045l-3.229019 1.01969-2.579217 1.167646-0.999696 2.998089c-3.058071 0.521842-6.100147 1.010693-9.182211 1.373583a120.732332 120.732332 0 0 0-9.68106 1.999393l-2.86513 0.709784-2.257315 0.913723-0.999696 2.999089c-5.932198 2.281307-5.932198 2.281307-9.147222 1.424567-4.269703-0.638806-7.997571 0.496849-12.152309 1.509542l-2.531231 0.59182c-2.052377 0.480854-4.101754 0.974704-6.150132 1.469554v1.999392c-11.842403 3.539925-11.842403 3.539925-16.98984 2.99909l-0.999697-0.999697c-1.953407 0.144956-1.953407 0.144956-4.250709 0.556831-0.853741 0.139957-1.707481 0.277916-2.587214 0.419873l-2.718174 0.45986a1634.461596 1634.461596 0 0 0-9.432136 1.561526v1.998393c-8.311476 1.634504-16.262061 2.289305-24.723491 2.259314-1.209633 0.001-2.420265 0.004998-3.668886 0.009997-3.283003 0.004998-6.565006 0.003999-9.849008-0.003-3.459949-0.004998-6.917899 0-10.378848 0.003-5.806237 0.003999-11.612473 0-17.41871-0.009997-6.681971-0.009997-13.365941-0.007998-20.046912 0.002999-5.772247 0.009997-11.541495 0.010997-17.311742 0.004998-3.431958-0.002999-6.863915-0.002999-10.296873 0.002999-3.828837 0.004998-7.660673-0.001999-11.49051-0.012996l-3.379973 0.011997c-7.289786-0.038988-14.19169-0.861738-21.343518-2.269311v-1.997394l-19.987929-2.999089v0.999697c-11.514503-0.779763-11.514503-0.779763-16.98984-2.99809v-1.999393a1271.253906 1271.253906 0 0 0-9.244193-2.062373l-2.643197-0.601817-2.556224-0.556831-2.347287-0.523841c-2.362283-0.271917-3.926807 0.116964-6.194119 0.746773-2.13935-0.55983-2.13935-0.55983-4.248709-1.437563l-2.138351-0.869736-1.608511-0.690791v-1.999392a718.1169 718.1169 0 0 0-6.559008-1.999393c-1.21763-0.369888-2.434261-0.741775-3.68788-1.123659-3.728868-0.871735-6.930895-0.949712-10.740738-0.874734-2.43626-0.999696-2.43626-0.999696-3.996786-1.998393v-1.999393a944.05628 944.05628 0 0 0-7.30878-2.561222l-2.090366-0.746773c-4.245711-1.518539-4.245711-1.518539-8.590391-0.689791-2.186336-0.936716-2.186336-0.936716-3.997785-1.998393v-1.998393a646.213738 646.213738 0 0 0-5.371369-2.061374l-3.022082-1.159648c-2.552225-1.08567-2.552225-1.08567-4.597604 0.222933-1.945409-0.777764-1.945409-0.777764-4.122748-1.936412l-2.195333-1.15165-1.677491-0.909724v-1.999393a2192.082241 2192.082241 0 0 0-12.306262-6.05816l-3.533927-1.758466-3.386971-1.649499-3.124051-1.538533c-2.683185-1.320599-2.683185-1.320599-5.63229 0.011997l-1.998393-0.999697v-2.998089l-5.996179-0.999697V961.707919l-2.623203-0.249924c-3.88382-0.862738-6.2561-2.301301-9.369154-4.746559v-1.999392l-1.67949-0.839745-8.314475-4.156738-2.062374-0.374886-1.935412-0.62481-0.999696-2.99809-2.249317-0.249924c-3.320991-0.905725-4.452648-2.232322-6.744952-4.746558-2.649195-2.235321-4.607601-3.319992-7.995571-3.997786l-1.999393-0.999697v-2.998089l-2.185336-0.874734-2.811147-1.123659-2.623203-0.874734c-2.751164-1.303604-3.670885-2.647196-5.371369-5.121445a56.641797 56.641797 0 0 0-6.995875-3.998785l-1.999393-0.998697-0.249924-1.936412-0.748772-2.061374a489.981187 489.981187 0 0 0-5.996179-1.998393c-1.124658-2.061374-1.124658-2.061374-1.999393-3.997786-2.023385-0.651802-2.023385-0.651802-3.996786-0.999696l-0.999696-1.998393-1.873432-0.874735c-2.511237-1.329596-3.434957-2.872128-5.122444-5.121444l-1.936412-0.937715c-2.791152-1.437563-4.111751-3.624899-6.05816-6.058161l-1.863434-0.905724c-2.60221-1.331596-4.277701-3.006087-6.32008-5.090454-0.694789-0.699787-1.388578-1.402574-2.103361-2.123356-1.706482-1.874431-1.706482-1.874431-2.705179-3.872823a181.645832 181.645832 0 0 0-3.998785-3.997786l-10.992662-10.993661a715.875581 715.875581 0 0 0-5.340378-4.363675c-1.784458-1.759466-2.56922-3.393969-3.65389-5.63029l-2.499241-1.998393c-2.538229-2.030383-3.09506-3.19303-4.496634-5.996179a533.273039 533.273039 0 0 0-4.996483-3.997786c-3.022082-3.113055-4.941499-5.770248-5.997179-9.993964l-1.998393-0.936716-1.999392-1.061678-0.373887-2.373279c-0.797758-3.348983-2.169341-3.604905-4.943498-5.355373-3.138047-2.36928-5.233411-5.576306-7.487726-8.761339l-1.480551-2.01039c-2.283307-3.167038-3.925808-5.605298-4.702571-9.48312h-1.998394c-1.479551-2.018387-1.479551-2.018387-3.186032-4.809539l-1.87743-3.033079-1.932413-3.150043c-4.585607-7.37576-4.585607-7.37576-9.557097-14.491599-2.695181-3.693878-4.796543-7.67167-6.940892-11.702446-1.791456-3.349983-3.68888-6.630986-5.605298-9.90899-0.882732-1.874431-0.882732-1.874431-0.882732-4.87252h-1.999392c-1.856436-3.133048-2.199332-5.371369-1.998394-8.994269h-1.998393a452.888453 452.888453 0 0 1-2.998089-5.184425l-1.686488-2.916114c-1.333595-2.942106-1.589517-4.710569-1.311601-7.889604h-1.999393v-4.996483h-1.998393c-3.083064-5.392362-4.553617-9.784028-4.996483-15.991143h-1.999393l-0.999696-5.996179h-1.998393c-2.202331-4.551618-2.587214-9.02326-2.998089-13.990751h-1.999393a923.104643 923.104643 0 0 1-3.496938-9.495116l-1.011693-2.686184c-2.005391-5.566309-2.763161-9.899993-2.486245-15.802201-1.008694-2.808147-1.333595-3.664887-3.997786-4.996482-1.799453-4.797543-2.163343-8.780333-1.873431-13.878785-0.145956-2.461252-0.899727-3.992787-2.124354-6.109145h-0.999697l-0.365889-1.9764c-1.056679-5.553313-1.056679-5.553313-2.694181-10.952673-1.399575-4.571612-1.829444-9.280182-1.936412-14.054732l0.999696-0.999696c-0.146955-1.953407-0.146955-1.953407-0.55883-4.250709l-0.419873-2.587214c-0.149954-0.896728-0.302908-1.794455-0.45886-2.718175l-0.446865-2.73117c-0.365889-2.233322-0.737776-4.467643-1.113661-6.700965h-1.999393C0.656801 578.624265 0.003999 570.67368 0.034989 562.21325l-0.009997-3.668886c-0.007998-3.284003-0.005998-6.568005 0-9.850008 0.004998-3.459949 0-6.918899-0.002999-10.378848-0.002999-5.806237 0.001-11.611473 0.010997-17.41871 0.010997-6.68297 0.006998-13.365941-0.003999-20.046912-0.008997-5.772247-0.009997-11.541495-0.004998-17.311742 0.002999-3.431958 0.003999-6.863915-0.002999-10.296873-0.004998-3.828837 0.002999-7.660673 0.013995-11.49051l-0.011996-3.379973c0.037988-7.289786 0.862738-14.19169 2.269311-21.343518h1.999393l2.998089-19.987929h-0.999696c0.39588-9.344162 2.574218-18.002532 4.997482-26.982805h1.998393l0.182944-1.722477c1.549529-14.284662 1.549529-14.284662 3.814842-19.265149h1.999392l0.435868-3.560919c0.181945-1.479551 0.369888-2.957102 0.562829-4.434653l0.342896-3.217023c0.774765-4.461645 2.152346-8.473427 3.717871-12.711139l0.851741-2.358284c0.687791-1.902422 1.384579-3.800846 2.083367-5.69827h1.999393c0.049985-0.59182 0.096971-1.183641 0.146956-1.792455 0.415874-4.394665 0.899727-8.170519 2.850134-12.199295h1.999393l0.999696-5.996179h1.998393l0.331899-1.9764c0.931717-5.138439 2.014388-9.436134 4.664584-14.013744h1.999392v-4.997482h1.998394l0.186943-2.936108c0.669797-4.9405 3.238017-8.867307 5.809235-13.054035h1.999393l0.435868-3.372976c0.562829-3.6229 0.562829-3.6229 1.562525-5.621293h1.999393l0.22993-2.037381c1.018691-3.922809 2.937108-6.918899 5.078458-10.329863 0.78976-1.277612 1.574522-2.555224 2.362282-3.833835l1.182641-1.91142a191.655792 191.655792 0 0 0 3.16204-5.424352c1.998393-3.485941 4.103754-6.88291 6.286091-10.255886l1.173643-1.819447c9.710051-14.960456 9.710051-14.960456 12.504203-16.356032l0.827748-2.119357c1.505543-3.696877 3.609904-6.697966 5.918203-9.936982l1.264616-1.851437c2.873127-4.05077 5.758251-6.366067 9.978969-9.078243a126.559562 126.559562 0 0 0 1.999393-5.996179c2.059375-1.124658 2.059375-1.124658 3.996786-1.999393l0.405877-1.791456c0.75577-2.810147 2.089365-4.240712 4.028776-6.391059l1.869432-2.103361c1.691486-1.706482 1.691486-1.706482 3.68988-2.706178l0.874734-1.873431c1.329596-2.510238 2.872128-3.434957 5.121444-5.121445l0.909724-1.862434c1.21963-2.392273 2.621204-3.934805 4.524626-5.821232l1.808451-1.823446c1.751468-1.486549 1.751468-1.486549 4.750557-2.486245l0.810754-1.81145c1.187639-2.186336 1.187639-2.186336 4.122748-4.122748 3.205027-2.157345 4.168734-3.792848 6.059159-7.057856a175.277766 175.277766 0 0 1 3.997786-1.999393l0.874735-1.748469c2.154346-4.309691 5.552314-7.721655 10.118926-9.244193l2.498242-2.998089c2.498241-2.998089 2.498241-2.998089 5.49633-3.997786l2.499241-2.998089c2.498241-2.998089 2.498241-2.998089 5.496331-3.997786l0.999696-1.998393 1.935412-0.374886 2.061374-0.624811 0.936716-1.998393 1.061677-1.999392c2.624203-0.749772 2.624203-0.749772 4.997483-0.999697l0.186943-1.873431c0.812753-2.123355 0.812753-2.123355 3.123051-3.186032l2.686185-0.935716c2.509238-1.6475 4.318688-3.344984 6.371065-5.560311 2.842137-2.638199 4.944498-3.372976 8.620382-4.433654l1.998393-1.999392v-1.998394l2.123355-0.812753c3.06207-1.263616 5.986182-2.546227 8.870306-4.183729l0.999696-2.999089c2.43526-1.123659 2.43526-1.123659 4.996483-1.998393 2.164343-0.833747 2.164343-0.833747 2.998089-2.99809l1.935412-0.437867c2.443258-0.423871 2.443258-0.423871 4.060767-3.558919 1.991395-0.374886 3.990788-0.708785 5.996179-0.999696a83.281706 83.281706 0 0 0 3.747862-3.998786c2.629201-2.33629 4.888515-3.047075 8.244496-3.996786l1.999392-0.999696 5.996179-2.99809v-1.999392c2.489244-0.685792 4.37767-0.998697 6.995876-0.998697 4.297695-1.729475 8.441436-3.802845 12.617168-5.809236l3.544923-1.657496 3.364978-1.609512 3.098059-1.475551c2.663191-1.279611 2.663191-1.279611 3.35898-4.438652 3.454951-1.21663 6.324079-1.999393 9.993965-1.999393 2.04138-0.532838 2.04138-0.532838 4.122747-1.311602l2.131353-0.737776c2.099362-0.88773 2.099362-0.88773 2.740168-3.946801 3.151043-0.699787 5.723262-0.999696 8.994268-0.999696a103.949429 103.949429 0 0 0 6.183122-1.81145l3.22902-1.018691 2.581216-1.166646 0.999696-2.999089 2.455254-0.330899c10.99666-1.409572 10.99666-1.409572 21.529462-4.665583l0.999696-2.99809c5.933198-2.282307 5.933198-2.282307 9.146222-1.425567 4.270703 0.639806 7.997571-0.496849 12.15231-1.510541l2.531231-0.59182c2.053376-0.479854 4.102754-0.973704 6.151132-1.469554V9.289179c11.843403-3.538925 11.843403-3.538925 16.98984-2.99809l0.999696 0.999697c1.952407-0.145956 1.952407-0.145956 4.251709-0.558831l2.586214-0.419872c0.896728-0.149954 1.793455-0.302908 2.718175-0.458861l2.73117-0.446864c2.235321-0.365889 4.467643-0.737776 6.700965-1.113662v-1.999393C445.339745 0.656801 453.288331 0.003999 461.749762 0.034989z m-7.732652 1.259618l3.997786 0.999696z m111.932005 0l3.996786 0.999696z m-119.927577 0.997697v0.999696h7.995572v-0.999696h-7.995572z m123.924363 0v0.999696h7.995572v-0.999696h-7.995572zM70.251664 249.142333l0.999696 1.999393z m882.461986 0l0.998697 1.999393zM62.255092 263.133084l0.999697 1.999392z m898.452131 0l0.999696 1.999392zM42.267163 304.108639l0.999696 1.999393z m938.427989 0l0.999697 1.999393z m-945.422865 15.990143l0.998697 1.999393z m952.417741 0l0.999696 1.999393z m-953.417437 2.99809l0.999696 1.999393z m954.417133 0l0.999696 1.999393z m-957.415222 5.996179l0.999696 1.999393z m960.413312 0l0.999696 1.999393zM27.277715 341.086408l0.999697 1.998393z m968.408884 0l0.999696 1.998393z m-969.40858 2.99809l0.999696 2.998089z m970.408276 0l0.999697 2.998089z m-973.406365 7.994572l0.999696 1.999392z m976.403455 0l0.999697 1.999392z m-977.403152 2.999089l0.999697 1.998393z m978.402849 0l0.999696 1.998393z m-979.402545 2.99709l0.999696 2.999089z m980.402241 0l0.999696 2.999089zM15.285358 378.063178l0.999696 2.999089z m992.394599 0l0.999696 2.999089z m0.999696 2.999089v4.996483h0.999696v-4.997482h-0.999696z m0.999696 4.996483l0.999697 3.997786z m0.999697 4.996482l0.998696 3.997786zM11.286572 396.052714l0.999697 3.996787z m1000.389171 0l0.999696 3.996787zM10.287875 400.048501l0.999697 3.998785z m1002.388564 0l0.999696 3.998785zM9.287179 405.046983l0.999697 1.999393z m1004.386957 0l0.999696 1.999393zM8.289482 410.043465l0.999697 1.999393z m1006.38535 0l0.999697 1.999393zM2.292304 446.022538v7.994572h0.999696v-7.995572h-0.999696z m1018.378707 0v7.994572h0.999696v-7.995572h-0.999696zM1.293607 454.01611l0.999696 3.997786z m1020.3771 0l0.999697 3.997786zM1.293607 565.948115l0.999696 3.996786z m1020.3771 0l0.999697 3.996786zM2.292304 569.945901v7.995572h0.999696v-7.995572h-0.999696z m1018.378707 0v7.995572h0.999696v-7.995572h-0.999696zM8.288483 611.921153l0.999696 1.998393z m1006.386349 0l0.999697 1.998393zM9.288179 616.917635l0.999696 1.999393z m1004.386957 0l0.999696 1.999393z m-1003.387261 2.99909l0.999697 3.996786z m1002.388564 0l0.999696 3.996786zM11.286572 623.912511l0.999697 3.997786z m1000.389171 0l0.999696 3.997786z m-0.999696 4.996482l0.999696 3.998786z m-0.999697 4.997483l0.999697 3.997785z m-0.998696 3.997785v4.996483h0.999696v-4.996483h-0.999696z m-993.394296 4.996483l0.999697 2.999089z m992.394599 0l0.999697 2.999089zM21.281537 662.889673l0.999696 2.99809z m980.402241 0l0.998696 2.99809z m-979.402545 3.997786l0.998697 1.999393z m978.402848 0l0.999697 1.999393z m-977.404151 2.998089l0.999696 1.999393z m976.403455 0l0.999697 1.999393z m-973.405366 6.995876l0.999696 2.998089z m970.408276 0l0.999697 2.998089z m-969.40858 3.996786l0.999697 1.999393z m968.408884 0l0.999696 1.999393zM31.275501 692.871567l0.999697 1.999393z m960.413312 0l0.999697 1.999393zM34.273591 698.867746l0.999696 1.999393z m954.417133 0l0.999696 1.999393z m-953.418437 2.99809l0.999697 1.999392z m952.41874 0l0.999697 1.999392z m-945.422864 15.990143l0.999696 1.999393z m938.427989 0l0.999696 1.999393zM62.256092 758.830535l0.999697 1.999393z m898.45213 0l0.999697 1.999393zM70.251664 772.822285l0.999696 1.999393z m882.461986 0l0.998697 1.999393z m-506.692112 247.848726v0.999696h7.995572v-0.999696h-7.995572z m123.924363 0v0.999696h7.995572v-0.999696h-7.995572z m-115.928791 0.999696l3.997786 0.999697z m111.932005 0l3.996786 0.999697z" fill="#EFEFEF" p-id="6234"></path><path d="M564.949419 33.273894l3.018083 0.324902c12.783118 1.409572 25.324309 3.582912 37.900489 6.250101 2.653194 0.542835 5.317385 0.984701 7.989574 1.419569 4.866522 0.862738 9.45013 2.33629 14.151702 3.845832 8.161521 2.504239 16.569968 4.237713 24.886441 6.148133v1.999393l3.019084 0.358891c4.005783 0.574825 7.810628 1.655497 11.660458 2.889122l2.123355 0.673796c6.216112 2.012389 12.1823 4.473641 18.17548 7.070852 2.827141 1.176643 5.66228 2.33729 8.49542 3.498938l4.41066 1.822446a422.01183 422.01183 0 0 0 7.167823 2.881125c8.753342 3.468946 16.970846 7.889604 25.246333 12.356247 2.753164 1.483549 5.510326 2.954103 8.267489 4.426656 10.430832 5.595301 20.503773 11.438526 30.360779 17.988537a1893.34497 1893.34497 0 0 0 5.435349 3.372975c7.103842 4.521627 13.817803 9.564095 20.549759 14.615561l2.103361 1.572523c9.949978 7.449737 19.564058 15.181389 28.87723 23.412889l2.842137 2.50224c4.24871 3.781851 8.357462 7.645678 12.336253 11.710443 1.791456 1.757466 3.648892 3.381973 5.56331 5.00548 4.120748 3.586911 7.853615 7.433742 11.550492 11.451522a2572.985556 2572.985556 0 0 1 5.868218 6.344073 697.048299 697.048299 0 0 0 4.84053 5.175429c6.237106 6.666975 11.946372 13.610866 17.488689 20.852666a916.302709 916.302709 0 0 0 4.700572 6.057161c6.549011 8.420443 12.736132 16.979843 18.522375 25.941121a534.317722 534.317722 0 0 0 3.838834 5.804237c25.379292 38.222391 25.379292 38.222391 25.379292 46.06601H82.245021c1.537533-4.613599 3.199028-8.585393 5.496331-12.804112l1.063677-1.965403c16.368029-30.006887 35.8891-59.526921 59.13404-84.693277a333.73864 333.73864 0 0 0 5.567309-6.262099c10.941677-12.532194 22.601136-24.264631 34.850416-35.515213a813.660882 813.660882 0 0 0 4.621596-4.283699c6.115143-5.636288 12.61217-10.744737 19.187173-15.824194a792.489312 792.489312 0 0 0 6.368066-5.011478c8.709355-6.886908 17.524678-13.410927 26.871839-19.406106a450.918051 450.918051 0 0 0 4.935501-3.240016c14.514592-9.542102 29.573018-18.420406 45.086307-26.238032l2.242318-1.136654c2.989092-1.469554 5.063462-2.486245 8.438438-2.486245v-1.999393a1017.191068 1017.191068 0 0 1 6.745951-2.99709l1.921416-0.866737c3.408965-1.492547 5.53232-2.131353 9.322169-2.131352v-1.999393l1.583519-0.578824c2.429262-0.88773 4.858524-1.77946 7.285787-2.66919l2.659193-0.975703c4.24671-1.563525 8.469428-3.151043 12.64416-4.895513 6.148133-2.506239 12.524196-4.351678 18.873268-6.278094a301.86532 301.86532 0 0 0 5.06946-1.623507c7.915596-2.573218 15.941158-4.431654 24.062692-6.215112 4.983486-1.094668 9.877-2.300301 14.768514-3.747862 6.348072-1.652498 12.756126-2.557223 19.250154-3.435956 3.575914-0.536837 7.069853-1.24962 10.606779-1.998393 39.993853-7.663672 83.710576-7.07985 124.049324-2.560223z" fill="#1C1C1E" p-id="6235"></path><path d="M82.244022 726.850248h859.474968c-8.101539 20.256848-20.623736 39.072133-32.979984 56.965699l-1.304604 1.901422c-6.737954 9.793026-13.79481 19.234158-21.331521 28.427366a411.012171 411.012171 0 0 0-3.608904 4.501633c-5.916203 7.412749-12.358247 14.277664-18.870269 21.160573a721.795783 721.795783 0 0 0-5.583304 6.018173c-10.696751 11.617472-10.696751 11.617472-16.548974 16.481994-1.784458 1.523537-3.39297 3.144045-5.019476 4.832532-3.665887 3.723869-7.664672 6.961886-11.732436 10.236891-2.972097 2.400271-5.896209 4.852526-8.818322 7.315778-17.920557 14.918469-36.971771 28.254419-57.089661 40.03784l-2.567221 1.506543c-11.269577 6.595997-22.65312 12.799113-34.410549 18.481387l-2.244318 1.209632c-1.753467 0.78876-1.753467 0.78876-4.751557 0.788761v1.999393a6204.405654 6204.405654 0 0 1-7.116839 2.841137 524.530694 524.530694 0 0 0-5.660281 2.311298l-2.651194 1.092668-2.432262 1.015691c-2.127354 0.733777-2.127354 0.733777-5.125443 0.733778v1.999392l-3.724869 1.205634-4.894513 1.603513-2.448257 0.79176c-3.471946 1.143653-6.727957 2.297302-10.000962 3.940803-3.566917 1.775461-7.147829 2.822143-10.973667 3.888819-1.529535 0.434868-3.059071 0.869736-4.587607 1.306603l-2.260314 0.643804c-2.756163 0.805755-5.478336 1.71148-8.206507 2.609208-7.93459 2.466251-16.064121 4.066765-24.187654 5.773247-3.299998 0.696788-6.576003 1.429566-9.838012 2.287305-11.02965 2.870128-22.175265 4.278701-33.473834 5.624292l-3.952799 0.473856-3.573915 0.414874c-2.747166 0.259921-2.747166 0.259921-4.799542 1.41557-5.251405 0.536837-10.532801 0.776764-15.802201 1.061677l-2.452255 0.13296c-32.339178 1.697484-64.498411 1.656497-96.675639-2.193334l-4.252708-0.477855c-1.429566-0.16495-2.857132-0.331899-4.284699-0.498848l-3.88482-0.446864c-3.383972-0.545834-6.342074-1.431565-9.564095-2.574219a252.646269 252.646269 0 0 0-7.995572-1.437563c-18.894262-3.22802-38.22839-7.062855-55.995993-14.405625-3.298998-1.275613-6.611992-2.217327-10.024956-3.145045-7.291785-2.00939-14.075725-4.796543-20.952636-7.914596a255.947266 255.947266 0 0 0-13.898779-5.76325c-10.222895-3.932806-19.847972-8.563399-29.427063-13.86079-2.83114-1.560526-5.676276-3.09506-8.521412-4.629594-14.930465-8.127532-29.096163-17.1218-43.06692-26.795862l-2.159344-1.483549c-8.687362-5.988181-16.946853-12.458216-25.12237-19.123192a516.921005 516.921005 0 0 0-4.562614-3.648892c-6.769944-5.405358-13.076029-11.236587-19.367118-17.184781a393.732419 393.732419 0 0 0-7.073852-6.534015c-8.129531-7.323776-15.635251-15.128405-23.025007-23.192956a820.08993 820.08993 0 0 0-4.200724-4.536623c-5.716264-6.206115-10.881695-12.790116-16.038129-19.45909a327.822437 327.822437 0 0 0-4.004784-5.009478c-17.87857-22.089291-32.836027-46.526869-46.175976-71.562266a121.688042 121.688042 0 0 0-3.016084-5.165431c-1.159648-1.990395-1.159648-1.990395-1.159647-3.988789z" fill="#FEB003" p-id="6236"></path><path d="M962.707615 750.835963h1.997394c1.047682 3.273006 1.137654 4.668582-0.213935 7.890603l-1.722477 2.915115-1.71248 2.956102-1.347591 2.228324h-4.996482c2.179338-8.953281 2.179338-8.953281 6.184121-11.554491l2.809147-1.437564-0.998697-2.999089z m-1.999393 7.994572l0.999697 1.999393z" fill="#E2E2E2" p-id="6237"></path><path d="M550.957668 1019.672314h9.993965v1.998393c4.372672 0.089973 8.655371 0.119964 12.992054-0.499848s8.620382-0.589821 12.992054-0.499848v0.999696c-9.729045 2.099362-19.092201 2.209329-28.981198 1.999393l-0.999696-1.999393c-3.02808-0.6578-3.02808-0.6578-5.997179-0.999696v-0.999696z m416.74643-278.830316l1.998393 0.999697c0.285913 7.423745 0.285913 7.423745-1.999393 10.992661l-4.996483-1.999393c0.642805-1.478551 1.288609-2.956102 1.936412-4.434653l1.089669-2.494242c0.971705-2.064373 0.971705-2.064373 1.971402-3.06407z m-490.700969 279.829013h19.987929l-3.997785 1.999393-0.999697 0.999696a75.908946 75.908946 0 0 1-5.308388 0.249924l-2.924112 0.076977c-2.760162-0.3279-2.760162-0.3279-6.757947-3.32599z m543.667882-493.698058h0.999696l0.999697 5.996178h0.999696c0.052984 1.58152 0.091972 3.164039 0.123963 4.746559l0.069978 2.670189c-0.203938 2.691183-0.827749 4.274702-2.193334 6.574003h-0.999696v-19.986929zM32.274198 688.873781h1.999393c1.255619 2.904118 1.998393 4.792544 1.998393 7.994572l-1.999393 0.999697v2.999089h-1.998393c-2.030383-4.061766-2.097363-6.600995-0.999696-10.993661l0.999696-0.999697z m-0.999696 3.997786l0.999696 1.999393zM927.728239 812.798144c0 2.998089 0 2.998089-2.311298 5.558312-4.889515 4.435653-4.889515 4.435653-8.682363 4.435653 1.824446-4.068764 3.461949-6.338075 7.620685-8.120534l2.373279-0.873734 0.999697-0.999697z" fill="#EFEFEF" p-id="6238"></path><path d="M1020.671011 477.003129c3.196029 4.260706 3.254012 5.043468 2.552225 10.032953l-0.364889 2.209329-0.3309 2.256315c-0.269918 1.832443-0.56083 3.660888-0.85674 5.488333h-0.999696v-19.98693zM526.972953 1020.670011h19.986929v0.999697l-1.756466 0.183944c-4.440651 0.475855-8.835317 1.025688-13.233981 1.814449v-1.999393h-4.996482v-0.998697z" fill="#F9F9F9" p-id="6239"></path><path d="M3.292 463.011378h0.999697c0.026992 1.41657 0.046986 2.83114 0.061981 4.24771l0.035989 2.389275c-0.093971 2.264312-0.465859 4.185729-1.097667 6.35507l-2.998089-0.999697c-0.124962-2.373279-0.124962-2.373279 0-4.996482l1.999392-1.999393c0.646804-2.56922 0.646804-2.56922 0.999697-4.996483z m1013.382225 143.912293h0.999696c-0.779763 11.515503-0.779763 11.515503-2.999089 16.98984-1.039684-3.378974-1.079672-6.474034-0.999696-9.993965h1.999393l0.999696-6.995875z m-2.999089-206.87417c3.714872 3.714872 3.944802 9.475122 4.122748 14.55358l-0.124962 2.43626h-0.999697l-0.999696-6.995876h-1.998393v-9.993964z m-945.422865 361.780123l1.999393 5.996179-5.997179-0.999696-0.999696-3.997786c1.999393-0.999696 1.999393-0.999696 4.998482-0.999697zM27.277715 353.078766v2.99809c-2.374279 1.560526-2.374279 1.560526-4.997482 2.998089l-1.999393 1.999393 0.999697-6.995876c2.999089-0.999696 2.999089-0.999696 5.997178-0.999696z m-4.997482 1.999393l0.999697 1.998393z" fill="#EFEFEF" p-id="6240"></path><path d="M928.727935 750.835963c0.749772 1.686488 0.749772 1.686488 0.999697 3.997786-1.874431 2.559223-1.874431 2.559223-3.998786 4.996482l-0.999696 2.999089h-1.998393c1.565525-4.305692 3.680882-8.057553 5.996178-11.993357z" fill="#F2E7CF" p-id="6241"></path><path d="M350.080677 995.686599c2.873127 0.249924 2.873127 0.249924 5.996179 0.999696 1.374583 2.060374 1.374583 2.060374 1.999392 3.996787l-6.996875-0.999697-0.999696-3.996786z m368.774999-17.989536l1.999392 0.999696c-0.749772 2.43626-0.749772 2.43626-1.999392 4.997482-2.124355 0.810754-2.124355 0.810754-3.997786 0.999697l-0.999697-4.998482c2.374279-1.059678 2.374279-1.059678 4.997483-1.998393zM48.264342 726.850248h1.999392l1.999393 6.995875h-1.999393v-1.999393h-1.999392l-0.999697 1.999393-0.999696-3.997786h1.999393v-2.998089z" fill="#EFEFEF" p-id="6242"></path><path d="M173.188401 124.218274l1.999393 0.999696c-1.81145 2.998089-1.81145 2.998089-3.998786 5.996179h-2.99709c1.291608-2.882125 2.657193-4.868521 4.996483-6.995875z" fill="#E2E2E2" p-id="6243"></path><path d="M99.233862 811.798448l3.996786 4.997482c-1.748469 0.687791-1.748469 0.687791-3.996786 0.999697-2.249317-1.437563-2.249317-1.437563-3.998786-2.99909l0.999696-1.998393 1.999393 0.999697 0.999697-1.999393z" fill="#F9F9F9" p-id="6244"></path><path d="M1008.678653 642.901744c1.123659 3.301997 0.895728 5.048467-0.437867 8.244496l-0.869736 2.13935-0.69079 1.609511c-1.116661-1.733474-1.116661-1.733474-1.999393-3.998785 0.679794-2.13935 0.679794-2.13935 1.874431-4.246711l1.179642-2.13935 0.943713-1.608511z" fill="#E2E2E2" p-id="6245"></path><path d="M14.285661 642.901744c4.765553 5.534319 4.765553 5.534319 4.996483 8.994268l-1.999393 2.999089a356.880611 356.880611 0 0 1-1.498545-3.748861l-0.842744-2.10736c-0.655801-2.13935-0.655801-2.13935-0.655801-6.137136z" fill="#EFEFEF" p-id="6246"></path><path d="M1005.680564 369.06791c1.999393 0.999696 1.999393 0.999696 3.186032 4.310691 0.717782 3.262009 1.014692 4.678579-0.187943 7.682667-3.535926-5.534319-3.535926-5.534319-3.997786-8.994269l0.999697-2.999089z" fill="#E2E2E2" p-id="6247"></path><path d="M17.283751 369.06791c1.115661 1.733474 1.115661 1.733474 1.999392 3.998786-0.679794 2.13935-0.679794 2.13935-1.87443 4.24671l-1.179642 2.13935-0.944713 1.609511c-1.122659-3.302997-0.894728-5.048467 0.437867-8.245496l0.870736-2.13935 0.68979-1.609511z" fill="#EFEFEF" p-id="6248"></path><path d="M23.27993 667.887155c2.022386 3.032079 2.319296 4.190727 2.623203 7.682667l0.226931 2.447257 0.147955 1.862434c-1.999393-0.999696-1.999393-0.999696-3.186032-3.748861-0.82275-3.291-0.75577-5.03647 0.187943-8.244496z m196.880205 262.839173l4.996482 1.999393-1.999392 2.99709 0.999696 1.999393-4.996482-1.999393 0.999696-4.996483z" fill="#F9F9F9" p-id="6249"></path><path d="M48.265341 731.84773h1.998393v1.999393h2.99809l0.999696 3.996786h-2.999089l-0.999696-1.999393-1.998393 0.999696-0.999697-2.998089 0.999697-1.999393z" fill="#E2E2E2" p-id="6250"></path><path d="M6.29009 606.923671h0.999696l0.999696 6.995875h1.998393l-0.999696 4.996482-1.999393-0.999696c-0.412875-2.50224-0.412875-2.50224-0.62381-5.558312l-0.226931-3.065069-0.147955-2.36928z m-4.996483-129.920542h1.999393v8.994268l-1.999393 0.999697a548.405443 548.405443 0 0 1-0.561829-4.435653l-0.316904-2.494243-0.120963-2.064373 0.999696-0.999696z" fill="#F9F9F9" p-id="6251"></path><path d="M107.228434 201.170902c-1.131656 3.396968-2.123355 4.05077-4.996483 5.997179v-1.999393l-2.999089 0.999696c0.999696-2.999089 0.999696-2.999089 2.874127-4.185728 2.123355-0.811753 2.123355-0.811753 5.121445-0.811754z" fill="#EFEFEF" p-id="6252"></path><path d="M369.06891 1005.680564c4.242711-0.332899 6.351071-0.438867 9.931983 1.999393l2.060375 1.998393c-4.31469-0.507846-8.027562-1.196637-11.992358-2.99909v-0.999696z" fill="#F9F9F9" p-id="6253"></path><path d="M714.85789 980.696152v4.996482l-5.996179-1.999392v-1.998393c1.999393-0.999696 1.999393-0.999696 5.996179-0.999697z" fill="#EFEFEF" p-id="6254"></path><path d="M967.704098 744.839784l1.998393 0.999696c-0.874734 4.746558-0.874734 4.746558-1.999393 6.994876l-2.998089-0.999696 2.999089-6.994876zM48.264342 288.118495h4.997482c-0.311905 1.936412-0.311905 1.936412-0.999697 3.997786l-2.998089 0.999696-1.999393-1.999392 0.999697-2.999089zM965.706704 271.127656h1.998393c1.427566 2.352286 2.085367 3.477944 1.623507 6.246103l-0.62481 1.749468c-1.890426-2.385276-3.022082-4.069764-3.997786-6.995875l0.999697-0.999696z" fill="#F9F9F9" p-id="6255"></path><path d="M889.750773 807.800662l0.999696 2.999089c-1.214631 1.822447-1.214631 1.822447-2.936108 3.684881l-1.71248 1.885427-1.347591 1.424568c0-3.393969 0.521842-4.062766 2.499241-6.68397l1.404574-1.884428 1.092668-1.425567z" fill="#F2E7CF" p-id="6256"></path><path d="M82.244022 786.814036c1.499545 1.24962 1.499545 1.24962 2.998089 2.998089v3.997786l-2.999089 0.999697c-1.095667-3.289001-0.798757-4.710569 0-7.995572zM8.289482 406.046679l1.998393 0.999697v2.997089h-1.999392l-0.999697 6.995876h-0.998696c0.139957-1.644501 0.286913-3.289001 0.437867-4.934502l0.245925-2.775157c0.315904-2.284306 0.315904-2.284306 1.3156-3.283003z" fill="#EFEFEF" p-id="6257"></path><path d="M25.278323 344.084498c1.107664 3.322991 0.844743 5.618294 0 8.994268l-2.99809 0.999696c0.307906-1.479551 0.621811-2.958102 0.937715-4.435652l0.52684-2.494243c0.534838-2.065373 0.534838-2.065373 1.533535-3.064069z" fill="#F9F9F9" p-id="6258"></path><path d="M98.234165 266.131173c0.811753 1.687487 0.811753 1.687487 0.999697 3.998786-2.43726 2.747166-2.43726 2.747166-4.997483 4.996482 1.058678-3.400967 2.00839-6.010175 3.997786-8.995268z" fill="#373739" p-id="6259"></path><path d="M836.78386 114.224309l2.998089 0.999696 0.999696 6.995875-4.997482-4.997482h1.999393l-0.999696-2.998089z" fill="#F9F9F9" p-id="6260"></path><path d="M586.935741 3.292c4.830533-0.082975 9.231196 0.046986 13.991751 0.999697v0.999696l-13.991751-0.999696v-0.999697z m-149.908471 0v0.999697l-13.991751 0.999696v-0.999696c4.760554-0.952711 9.162217-1.082671 13.991751-0.999697zM735.846515 973.700277l1.998393 0.999696c-5.172429 3.220022-5.172429 3.220022-6.995875 3.996786l-2.998089-0.999696a333.690654 333.690654 0 0 1 3.872823-2.059375l2.179339-1.161647 1.943409-0.775764z m-449.726413 0c3.909813 1.154649 6.870913 2.353285 9.993965 4.996482-3.945802-0.563829-6.704964-1.741471-9.993965-3.997786v-0.999696z" fill="#E2E2E2" p-id="6261"></path><path d="M727.849944 45.266252c3.955799 0.564828 6.661977 1.808451 9.993965 3.997786l-1.999393 0.999696c-1.94341-0.776764-1.94341-0.776764-4.121748-1.937411l-2.193334-1.150651-1.67949-0.909723v-0.999697z m-431.736877 0.999697a333.690654 333.690654 0 0 1-3.871824 2.060374l-2.179338 1.159648-1.94341 0.777763-1.999393-0.999696c6.620989-4.122748 6.620989-4.122748 9.993965-2.999089z" fill="#EFEFEF" p-id="6262"></path><path d="M642.901744 1009.67835c-3.133048 1.856436-5.371369 2.199332-8.994269 1.998393 3.133048-1.856436 5.371369-2.199332 8.994269-1.999393z m-261.840476 0l8.995268 0.999696v0.998697l-8.995268-0.999697v-0.999696z" fill="#D8D8D8" p-id="6263"></path><path d="M12.286269 633.907475c1.857436 3.133048 2.199332 5.371369 1.999392 8.994269-1.857436-3.133048-2.199332-5.371369-1.999392-8.994269z m0.999696-252.846207h0.999696l-0.999696 8.995268h-0.999696l0.999696-8.995268z" fill="#EFEFEF" p-id="6264"></path><path d="M633.907475 12.286269l8.994269 0.999696v0.999696l-8.994269-0.999696v-0.999696z m-243.850939 0c-3.133048 1.857436-5.372368 2.199332-8.995268 1.999392 3.133048-1.857436 5.372368-2.199332 8.995268-1.999392z" fill="#D8D8D8" p-id="6265"></path><path d="M668.074099 1002.057664l1.811449 0.62481-6.995875 0.999697c2.998089-1.999393 2.998089-1.999393 5.184426-1.624507z m-313.995637-0.374886l6.994876 0.999696c-1.81045 0.62481-1.81045 0.62481-3.996786 0.999697l-2.999089-1.999393z m-16.98984-5.996179l6.995876 0.999696c-1.81145 0.623811-1.81145 0.623811-3.998786 0.999697l-2.99709-1.999393z m347.975317 0.374886l1.811449 0.62481-6.995875 0.999697c2.998089-1.999393 2.998089-1.999393 5.184426-1.624507z m-5.184426-969.783466l6.995875 0.999696c-1.81145 0.623811-1.81145 0.623811-3.998785 0.999697l-2.99709-1.999393z m-337.606465 0.374886l1.81145 0.62481-6.995876 0.999697c2.998089-1.999393 2.998089-1.999393 5.184426-1.624507z m320.616625-6.371065l6.995875 0.999697c-1.81145 0.623811-1.81145 0.623811-3.997785 0.999696l-2.99909-1.999393z m-303.626785 0.374886l1.81045 0.624811-6.994876 0.999696c2.998089-1.999393 2.998089-1.999393 5.184426-1.624507z m227.672853 999.015588h6.995875v0.999697h-6.995875v-0.999697z m-156.904346 0h6.995875v0.999697h-6.995875v-0.999697z" fill="#EFEFEF" p-id="6266"></path><path d="M593.931616 1018.672618h6.995876v0.999696h-6.995876v-0.999696z m-170.896097 0h6.995876v0.999696h-6.995876v-0.999696z" fill="#F9F9F9" p-id="6267"></path><path d="M4.291697 593.931616h0.999696v6.995876h-0.999696v-6.995876z" fill="#E2E2E2" p-id="6268"></path><path d="M1018.672618 593.931616h0.999696v6.995876h-0.999696v-6.995876z" fill="#EFEFEF" p-id="6269"></path><path d="M3.292 586.935741h0.999697v6.995875h-0.999697v-6.995875z" fill="#E2E2E2" p-id="6270"></path><path d="M1019.672314 586.935741h0.999697v6.995875h-0.999697v-6.995875z m0-156.904346h0.999697v6.995875h-0.999697v-6.995875z" fill="#EFEFEF" p-id="6271"></path><path d="M3.292 430.031395h0.999697v6.995875h-0.999697v-6.995875z m0.999697-6.995876h0.999696v6.995876h-0.999696v-6.995876z" fill="#E2E2E2" p-id="6272"></path><path d="M1018.672618 423.035519h0.999696v6.995876h-0.999696v-6.995876zM600.927492 1017.672922h5.996179v0.999696h-5.996179v-0.999696z m-183.888151 0h5.996178v0.999696h-5.996178v-0.999696z" fill="#EFEFEF" p-id="6273"></path><path d="M691.871871 992.68851l2.999089 0.999696-4.998482 0.999696 1.999393-1.999392z" fill="#D8D8D8" p-id="6274"></path><path d="M745.83948 968.702794l2.99809 0.999697-4.997482 0.999696 1.999392-1.999393z m-470.713039 0l4.996483 0.999697-2.99809 0.999696-1.999393-1.999393z" fill="#EFEFEF" p-id="6275"></path><path d="M1017.672922 600.927492h0.999696v5.996179h-0.999696v-5.996179z m-1012.382529 0h0.999697v5.996179h-0.999697v-5.996179z m1012.382529-183.888151h0.999696v5.996178h-0.999696v-5.996178z m-1012.382529 0h0.999697v5.996178h-0.999697v-5.996178z" fill="#F9F9F9" p-id="6276"></path><path d="M743.840088 53.261824l4.997482 0.999696-2.999089 0.999697-1.998393-1.999393z m-466.715254 0l2.999089 0.999696-4.998482 0.999697 1.999393-1.999393z m323.801658-47.971431h5.998178v0.999697h-5.998178v-0.999697z m-183.887151 0h5.996178v0.999697h-5.996178v-0.999697z" fill="#EFEFEF" p-id="6277"></path><path d="M623.913511 1012.676439h4.996482v0.999696h-4.996482v-0.999696z m-228.860493 0h4.996483v0.999696h-4.996483v-0.999696z m233.856975-0.999696h4.997482v0.999696H628.908993v-0.999696z m-238.853457 0h4.996482v0.999696h-4.996482v-0.999696zM628.908993 11.287572h4.997483v0.999696H628.908993v-0.999696z m-238.853457 0h4.996482v0.999696h-4.996482v-0.999696z m233.856975-0.999697h4.996482v0.999697h-4.996482v-0.999697z m-228.860493 0h4.996483v0.999697h-4.996483v-0.999697z" fill="#F9F9F9" p-id="6278"></path><path d="M654.894101 1004.680867l3.998786 0.999697z m-289.821977 0l3.996786 0.999697z" fill="#EFEFEF" p-id="6279"></path><path d="M658.891887 1003.681171l3.997786 0.999696z" fill="#F9F9F9" p-id="6280"></path><path d="M361.073338 1003.681171l3.998786 0.999696z" fill="#EFEFEF" p-id="6281"></path><path d="M807.801662 930.726328l1.998393 0.999697h-2.999089l0.999696-0.999697z m-593.638706 0l2.99909 0.999697h-2.99909v-0.999697z" fill="#E2E2E2" p-id="6282"></path><path d="M916.734578 826.788895v2.999089z" fill="#AAAAAA" p-id="6283"></path><path d="M1003.681171 658.891887l0.999696 3.997786z m-984.399027 0l0.999696 3.997786z m-0.999697-3.997786l0.999697 3.998786z" fill="#EFEFEF" p-id="6284"></path><path d="M1004.680867 654.894101l0.999697 3.998786z m0-289.821977l0.999697 3.996786z" fill="#F9F9F9" p-id="6285"></path><path d="M18.282447 365.071124l0.999697 3.997786z m985.398724-3.997786l0.999696 3.998786z m-984.399027 0l0.999696 3.998786z" fill="#EFEFEF" p-id="6286"></path><path d="M915.734881 194.176027l1.999393 0.999696-0.999696 1.998393-0.999697-2.999089z" fill="#AAAAAA" p-id="6287"></path><path d="M215.162653 91.23829l1.999393 0.999696h-2.99909l0.999697-0.999696z m591.639312 0l2.99809 0.999696h-2.999089v-0.999696z" fill="#E2E2E2" p-id="6288"></path><path d="M658.891887 19.282144l3.997786 0.999696z" fill="#F9F9F9" p-id="6289"></path><path d="M361.073338 19.282144l3.998786 0.999696z m293.820763-0.999697l3.998786 0.999697z m-289.821977 0l3.996786 0.999697z" fill="#EFEFEF" p-id="6290"></path><path d="M669.885548 1000.683082l2.99809 0.999696z m-318.806175 0l2.999089 0.999696z" fill="#F9F9F9" p-id="6291"></path><path d="M686.875388 994.687902l2.99809 0.998697z m-352.784855 0l2.998089 0.998697z" fill="#E2E2E2" p-id="6292"></path><path d="M331.092444 993.688206l2.998089 0.999696z m372.771785-5.997179l2.999089 0.999697z m-386.763536 0l2.998089 0.999697z m389.761625-0.999696l2.999089 0.999696z m-392.760714 0l2.999089 0.999696z m395.759803-0.998697l2.99809 0.999697z m-398.756893 0l2.99809 0.999697z m413.747341-6.995875l2.998089 0.999696z m-428.738788 0l2.999089 0.999696z m-50.96852-27.982501l1.999393 1.999392h-1.999393v-1.999392z m532.675221 0l0.999696 1.999392-1.999393-0.999696 0.999697-0.999696z" fill="#F9F9F9" p-id="6293"></path><path d="M187.180151 909.738702l1.999393 1.999393h-1.999393v-1.999393z" fill="#E2E2E2" p-id="6294"></path><path d="M835.784163 909.738702l0.999697 1.999393-1.999393-0.999696 0.999696-0.999697zM112.225916 834.784467l1.999393 1.999393h-1.999393v-1.999393z m798.512483 0l0.999696 1.999393-1.999393-0.999697 0.999697-0.999696z m-0.999697-647.604316h1.999393l-0.999696 1.999393-0.999697-1.999393z m-797.512786 0l1.999393 0.999697-1.999393 0.999696v-1.999393z" fill="#F9F9F9" p-id="6295"></path><path d="M834.784467 112.225916h1.999393l-0.999697 1.998393-0.999696-1.999393z m-647.604316 0l1.999393 0.999696-1.999393 0.998697v-1.999393z" fill="#E2E2E2" p-id="6296"></path><path d="M776.820071 71.25036h1.999393l-0.999696 1.999393-0.999697-1.999393zM724.851855 44.266556l2.998089 0.999696z m-428.738788 0l2.999089 0.999696z m413.74834-6.994876l2.99809 0.999697z m-398.756893 0l2.99809 0.999697z m395.757804-0.999696l2.999089 0.999696z m-392.760714 0l2.999089 0.999696z m389.762625-0.999697l2.999089 0.999697z m-386.763536 0l2.998089 0.999697z m372.772785-5.996178l2.998089 0.999696z m-358.781034 0l2.998089 0.999696z" fill="#F9F9F9" p-id="6297"></path><path d="M686.875388 28.276412l2.99809 0.999697z m-352.784855 0l2.998089 0.999697z" fill="#C6C6C6" p-id="6298"></path><path d="M669.885548 22.280233l2.99809 0.999697z m-318.806175 0l2.999089 0.999697zM329.093051 992.68851l1.999393 0.999696z" fill="#F9F9F9" p-id="6299"></path><path d="M701.865836 988.690724l1.999392 0.999696z m-381.767054 0l1.999393 0.999696z" fill="#C6C6C6" p-id="6300"></path><path d="M722.853461 979.696455l1.998394 0.999697z m-423.741305 0l1.998393 0.999697z m438.731753-6.995875l1.999392 0.999697z m-453.7232 0l1.999393 0.999697z m455.721593-0.999696l1.999393 0.999696z m-457.720985 0l1.999392 0.999696z m459.720378-0.999697l1.999392 0.999697z m-461.718771 0l1.999392 0.999697z m472.711432-5.996178l1.999393 0.999696z m-483.704094 0l1.998393 0.999696zM758.831535 961.707919l1.998393 0.999696z m-495.698451 0l1.999392 0.999696z m507.690808-6.995875l1.999393 0.999696z m-519.682166 0l1.998393 0.999696z" fill="#F9F9F9" p-id="6301"></path><path d="M772.822285 953.712347l1.999393 0.999697z m-523.680952 0l1.999393 0.999697z" fill="#C6C6C6" p-id="6302"></path><path d="M774.821678 952.712651l1.998393 0.999696z m-527.678738 0l1.999393 0.999696z m533.674917-3.997786l1.999393 0.999696z m-539.671096 0l1.999393 0.999696z m544.667579-2.99809l1.999392 0.999697z m-549.664061 0l1.999392 0.999697z m558.659329-5.996178l1.998393 0.999696z m-567.654597 0l1.999392 0.999696z m569.65299-0.999697l1.999392 0.999697z m-571.651384 0l1.999393 0.999697z" fill="#F9F9F9" p-id="6303"></path><path d="M804.802573 932.724721l1.999392 0.999697z m-587.641527 0l1.999393 0.999697z" fill="#C6C6C6" p-id="6304"></path><path d="M817.794627 923.730453l1.999393 0.999696z m-613.624636 0l1.998393 0.999696z" fill="#F9F9F9" p-id="6305"></path><path d="M827.788592 915.734881l1.999392 0.999697z m-633.612565 0l1.998393 0.999697zM827.788592 107.228434l1.999392 0.999696z" fill="#C6C6C6" p-id="6306"></path><path d="M194.176027 107.228434l1.998393 0.999696z m623.6186-7.994572l1.999393 0.999696z m-613.624636 0l1.998393 0.999696z" fill="#F9F9F9" p-id="6307"></path><path d="M804.802573 90.238594l1.999392 0.999696z m-587.641527 0l1.999393 0.999696z" fill="#C6C6C6" p-id="6308"></path><path d="M796.808001 84.242415l1.999392 0.999696z m-571.651384 0l1.999393 0.999696z m569.652991-0.999697l1.998393 0.999697z m-567.654597 0l1.999392 0.999697z m558.660328-5.996179l1.998393 0.999697z m-549.66506 0l1.999392 0.999697z m544.667578-2.998089l1.999393 0.999696z m-539.671096 0l1.999393 0.999696z m533.674917-3.996786l1.998393 0.999696z m-527.678738 0l1.999393 0.999696z" fill="#F9F9F9" p-id="6309"></path><path d="M772.822285 69.251967l1.999393 0.999697z m-523.680952 0l1.999393 0.999697z" fill="#C6C6C6" p-id="6310"></path><path d="M770.823892 68.252271l1.999393 0.999696z m-519.682166 0l1.998393 0.999696z m507.689809-6.995875l1.998393 0.999696z m-495.698451 0l1.999392 0.999696z m489.701272-2.99809l1.999393 0.999697z m-483.704094 0l1.998393 0.999697z m472.711433-5.996179l1.999392 0.999697z m-461.718771 0l1.999392 0.999697z m459.720377-0.999696l1.998394 0.999696z m-457.720985 0l1.998393 0.999696z m455.721593-0.999696l1.999392 0.999696z m-453.7232 0l1.999393 0.999696z m438.732752-6.994876l1.998394 0.999696z m-423.741305 0l1.998393 0.999696z m1.998393-0.999696l1.999393 0.999696z" fill="#F9F9F9" p-id="6311"></path><path d="M701.865836 34.273591l1.999392 0.999696z m-381.767054 0l1.999393 0.999696z" fill="#C6C6C6" p-id="6312"></path><path d="M692.871567 30.275805l1.999393 0.999696z m-363.778516 0l1.999393 0.999696z" fill="#F9F9F9" p-id="6313"></path></svg>